# xmcd
#
# Track frame offsets:
#	150
#	10678
#	25517
#	41573
#	51479
#	64767
#	85820
#	106802
#	128476
#	140402
#	157876
#	175096
#	195117
#
# Disc length: 2744 seconds
#
# Revision: 0
# Processed by: cddbd v1.5.2PL0 Copyright (c) Steve Scherf et al.
# Submitted via: FairStars CD Ripper 1.90
#
DISCID=930ab60d
DTITLE=The Urban Voodoo Machine - Hellbound Hymns
DYEAR=2016
DGENRE=Bourbon Soaked Gypsy
TTITLE0=While We Were Asleep
TTITLE1=Love And Addiction
TTITLE2=Shattered Dreams
TTITLE3=Hit The Road
TTITLE4=The Ghost From My Bastard Past
TTITLE5=Bucket Of Blood
TTITLE6=Baby's Turning Blue
TTITLE7=All Mixed Up
TTITLE8=Let You Rot
TTITLE9=Rusty Water
TTITLE10=Destiny Angel
TTITLE11=Fallen Brothers
TTITLE12=Lullaby
EXTD=
EXTT0=
EXTT1=
EXTT2=
EXTT3=
EXTT4=
EXTT5=
EXTT6=
EXTT7=
EXTT8=
EXTT9=
EXTT10=
EXTT11=
EXTT12=
PLAYORDER=
